<mxfile host="app.diagrams.net" agent="Mozilla/5.0 (X11; Linux x86_64; rv:140.0) Gecko/20100101 Firefox/140.0" version="28.1.2">
  <diagram name="Page-1" id="3-1BNayZdIjPn9wqHxmI">
    <mxGraphModel dx="1426" dy="751" grid="1" gridSize="10" guides="1" tooltips="1" connect="1" arrows="1" fold="1" page="1" pageScale="1" pageWidth="850" pageHeight="1100" math="0" shadow="0">
      <root>
        <mxCell id="0" />
        <mxCell id="1" parent="0" />
        <mxCell id="kBxJ-h7kbMimE7XJpEtF-1" value="&lt;font style=&quot;font-size: 35px;&quot;&gt;User Input&lt;/font&gt;" style="whiteSpace=wrap;html=1;aspect=fixed;" parent="1" vertex="1">
          <mxGeometry x="100" y="80" width="180" height="180" as="geometry" />
        </mxCell>
        <mxCell id="kBxJ-h7kbMimE7XJpEtF-2" value="" style="html=1;shadow=0;dashed=0;align=center;verticalAlign=middle;shape=mxgraph.arrows2.arrow;dy=0.6;dx=40;notch=0;" parent="1" vertex="1">
          <mxGeometry x="310" y="135" width="100" height="70" as="geometry" />
        </mxCell>
        <mxCell id="kBxJ-h7kbMimE7XJpEtF-3" value="&lt;font style=&quot;font-size: 24px;&quot;&gt;Add Input to Array&lt;/font&gt;" style="whiteSpace=wrap;html=1;aspect=fixed;" parent="1" vertex="1">
          <mxGeometry x="430" y="70" width="200" height="200" as="geometry" />
        </mxCell>
        <mxCell id="kBxJ-h7kbMimE7XJpEtF-4" value="" style="html=1;shadow=0;dashed=0;align=center;verticalAlign=middle;shape=mxgraph.arrows2.arrow;dy=0.6;dx=40;direction=south;notch=0;" parent="1" vertex="1">
          <mxGeometry x="520" y="300" width="70" height="100" as="geometry" />
        </mxCell>
        <mxCell id="kBxJ-h7kbMimE7XJpEtF-5" value="&lt;div&gt;&lt;font style=&quot;font-size: 28px;&quot;&gt;Sort the Array with user inputted&lt;/font&gt;&lt;/div&gt;&lt;div&gt;&lt;font style=&quot;font-size: 28px;&quot;&gt;Data&lt;/font&gt;&lt;/div&gt;" style="whiteSpace=wrap;html=1;aspect=fixed;" parent="1" vertex="1">
          <mxGeometry x="250" y="410" width="400" height="400" as="geometry" />
        </mxCell>
        <mxCell id="kBxJ-h7kbMimE7XJpEtF-6" value="" style="html=1;shadow=0;dashed=0;align=center;verticalAlign=middle;shape=mxgraph.arrows2.arrow;dy=0.6;dx=40;direction=south;notch=0;" parent="1" vertex="1">
          <mxGeometry x="440" y="820" width="70" height="100" as="geometry" />
        </mxCell>
        <mxCell id="kBxJ-h7kbMimE7XJpEtF-7" value="&lt;font style=&quot;font-size: 29px;&quot;&gt;Print out each value in Array&lt;/font&gt;" style="whiteSpace=wrap;html=1;aspect=fixed;" parent="1" vertex="1">
          <mxGeometry x="400" y="920" width="160" height="160" as="geometry" />
        </mxCell>
      </root>
    </mxGraphModel>
  </diagram>
</mxfile>
